<?xml version="1.0" standalone="no"?>
<!DOCTYPE svg PUBLIC "-//W3C//DTD SVG 20010904//EN"
 "http://www.w3.org/TR/2001/REC-SVG-20010904/DTD/svg10.dtd">
<svg version="1.0" xmlns="http://www.w3.org/2000/svg"
  viewBox="0 0 4000.000000 2700.000000"
 preserveAspectRatio="xMidYMid meet">

<g transform="translate(0.000000,3300.000000) scale(0.100000,-0.100000)"
fill="#000000" stroke="none">
<path d="M17220 31686 c-25 -7 -112 -45 -195 -83 -82 -39 -177 -82 -210 -98
-109 -50 -772 -351 -1025 -465 -102 -46 -311 -147 -465 -223 -411 -206 -409
-204 -475 -612 -23 -146 -51 -312 -81 -490 -43 -254 -60 -349 -78 -457 -53
-305 -117 -715 -201 -1288 -12 -80 -30 -201 -40 -270 -10 -69 -28 -188 -39
-265 -37 -257 -62 -429 -82 -560 -23 -160 -52 -354 -79 -545 -12 -80 -30 -201
-40 -270 -10 -69 -28 -190 -40 -270 -12 -80 -30 -203 -41 -275 -10 -71 -28
-193 -39 -270 -12 -77 -29 -196 -40 -265 -10 -69 -28 -190 -40 -270 -12 -80
-30 -199 -40 -265 -10 -66 -28 -187 -40 -270 -51 -363 -63 -433 -81 -489 -10
-33 -19 -77 -19 -98 l0 -38 -72 0 c-205 0 -548 123 -893 321 -168 96 -355 215
-355 225 0 4 22 30 49 59 27 28 61 76 76 105 24 48 27 61 23 144 -3 73 -9 102
-31 149 -37 81 -96 148 -175 200 -91 60 -152 86 -246 102 -43 8 -80 16 -83 19
-3 3 12 29 34 58 80 105 136 195 192 313 91 187 129 310 167 529 33 189 35
524 4 692 -11 60 -20 124 -20 143 0 85 57 123 423 286 442 196 605 287 726
406 138 136 156 193 102 320 -64 152 -172 271 -348 389 -274 183 -518 259
-839 260 -239 0 -432 -39 -694 -140 -30 -12 -163 -75 -294 -141 -132 -67 -268
-131 -303 -145 -77 -29 -206 -60 -288 -69 -156 -18 -391 -85 -562 -162 l-102
-45 -33 20 c-89 54 -283 92 -465 92 -109 0 -353 -30 -455 -55 -79 -20 -182
-49 -272 -75 -44 -13 -97 -20 -151 -20 -72 0 -91 4 -156 34 -76 34 -219 70
-419 104 -383 67 -850 63 -1196 -9 -349 -72 -624 -228 -852 -484 -73 -82 -109
-152 -123 -238 -6 -34 -15 -67 -22 -73 -7 -6 -50 -21 -97 -34 -171 -47 -317
-121 -452 -228 -120 -96 -195 -197 -249 -337 -27 -67 -32 -98 -37 -192 -6
-131 4 -178 52 -244 29 -40 104 -100 139 -112 7 -2 -21 -39 -62 -82 -97 -102
-126 -164 -124 -266 1 -155 97 -269 225 -269 24 0 72 -7 108 -16 36 -8 83 -19
105 -23 22 -5 103 -25 180 -44 77 -20 217 -54 310 -77 94 -23 197 -50 230 -60
33 -9 96 -28 140 -40 125 -35 567 -178 695 -225 632 -233 1325 -565 1876 -899
106 -64 106 -64 70 -226 -19 -83 -16 -140 14 -245 29 -103 77 -183 155 -260
105 -104 236 -173 399 -213 106 -25 284 -23 418 6 131 27 131 27 278 -85 673
-513 1815 -1166 2460 -1408 164 -61 338 -105 418 -105 l50 0 -5 -47 c-2 -27
-10 -93 -18 -148 -8 -55 -17 -125 -20 -155 -4 -30 -13 -64 -20 -76 -8 -12 -18
-83 -24 -175 -29 -404 -40 -497 -60 -537 -26 -50 -71 -90 -214 -187 -183 -124
-717 -500 -862 -606 -181 -132 -517 -401 -550 -441 -51 -60 -71 -123 -94 -303
-12 -93 -29 -217 -37 -275 -45 -325 -60 -762 -28 -838 19 -47 54 -84 127 -134
113 -77 245 -126 482 -177 55 -12 139 -31 188 -42 137 -30 253 -55 367 -79 58
-12 143 -30 190 -40 47 -10 132 -28 190 -40 58 -12 143 -30 190 -40 47 -10
130 -28 185 -39 199 -42 302 -63 393 -82 50 -10 134 -28 185 -38 50 -11 139
-29 197 -41 58 -12 143 -30 190 -40 47 -10 132 -28 190 -40 58 -12 143 -30
190 -40 47 -10 131 -28 188 -39 56 -12 148 -30 205 -42 56 -11 140 -29 187
-39 87 -19 204 -43 390 -81 58 -11 143 -29 190 -39 47 -10 135 -28 195 -40 61
-12 148 -30 195 -40 47 -10 132 -28 190 -39 58 -12 148 -30 200 -41 90 -18
187 -38 395 -80 50 -10 135 -27 190 -38 55 -11 145 -29 200 -40 55 -11 145
-29 200 -41 55 -11 111 -22 125 -24 22 -4 221 -44 480 -96 52 -11 145 -29 205
-41 61 -12 151 -30 200 -40 50 -10 142 -28 205 -40 63 -12 156 -30 205 -40 50
-10 142 -28 205 -40 63 -12 156 -30 205 -40 50 -10 137 -28 195 -39 265 -52
320 -64 385 -86 118 -40 200 -90 340 -210 270 -231 606 -435 911 -555 143 -56
190 -78 204 -95 15 -18 -173 -574 -253 -745 -19 -41 -49 -88 -66 -105 -30 -28
-36 -29 -154 -36 -173 -11 -296 -50 -424 -137 -137 -93 -297 -295 -334 -421
-7 -24 -23 -50 -36 -58 -21 -14 -27 -11 -130 64 -722 531 -1447 787 -2233 787
-424 0 -816 -68 -1263 -218 -496 -167 -852 -376 -1171 -686 -230 -224 -403
-462 -557 -765 -187 -370 -227 -630 -126 -830 32 -64 207 -322 302 -446 165
-213 470 -497 762 -707 387 -278 964 -574 1508 -774 117 -43 399 -136 480
-159 39 -10 102 -28 140 -39 318 -91 742 -180 1245 -260 234 -38 292 -27 559
105 106 53 195 94 196 93 36 -49 135 -160 160 -181 53 -43 133 -75 220 -86
111 -15 440 -16 560 -2 506 60 897 128 1180 206 55 15 121 33 146 40 108 30
389 130 449 160 175 88 266 194 320 374 22 71 22 83 17 389 -3 179 -12 397
-22 500 -13 139 -14 186 -6 196 7 8 57 33 113 57 124 52 200 102 284 187 134
135 229 315 290 552 21 80 25 119 26 245 1 152 -13 233 -57 348 -33 82 -29 93
188 578 111 250 207 463 214 474 9 16 16 18 38 10 21 -8 33 -24 50 -70 68
-183 178 -274 439 -363 61 -21 111 -43 114 -50 2 -6 -55 -72 -126 -147 -435
-451 -663 -964 -692 -1552 -35 -736 160 -1397 572 -1939 213 -280 499 -544
813 -749 172 -112 194 -120 355 -119 155 0 186 8 376 99 343 165 667 467 1006
938 208 290 407 650 584 1057 108 247 114 262 164 395 23 61 48 126 56 145 70
178 215 649 300 975 20 77 42 165 49 195 108 470 116 511 108 553 -12 62 -52
125 -118 183 -36 32 -72 69 -82 83 -15 24 -15 26 7 40 13 9 57 26 99 39 78 25
121 55 147 105 18 34 60 246 68 342 4 39 14 147 23 240 12 125 17 272 17 555
1 355 -1 390 -18 444 -34 102 -96 142 -251 161 -27 4 -99 15 -160 25 -60 10
-165 28 -233 39 -67 11 -176 30 -242 41 -66 11 -174 29 -240 40 -220 36 -354
59 -447 75 -51 9 -137 23 -190 31 -54 8 -121 21 -150 29 -46 13 -56 21 -80 63
-68 118 -160 213 -290 300 -29 19 -53 39 -53 43 0 18 149 154 636 581 224 197
253 227 291 301 51 100 52 125 53 785 0 592 1 614 20 652 11 21 34 50 52 63
18 14 168 100 333 192 165 92 329 184 365 205 36 20 92 52 125 70 33 18 125
70 205 115 129 73 602 337 737 411 134 75 183 134 183 222 0 48 33 151 65 202
47 75 136 140 239 175 24 8 100 46 168 83 67 38 159 88 203 112 123 67 481
271 670 383 295 173 1167 698 1237 744 75 50 119 102 147 179 23 60 62 301 91
566 12 103 28 211 36 240 8 29 12 65 9 79 -3 14 -1 81 4 150 10 119 11 125 40
149 16 14 99 88 186 164 154 136 385 326 463 380 l39 27 94 -12 c269 -33 705
38 933 153 209 105 406 312 458 481 47 155 -15 285 -169 353 -36 16 -52 28
-47 37 4 6 15 23 24 37 30 45 127 233 170 330 196 443 273 909 224 1365 -40
380 -31 542 51 892 14 60 48 284 59 393 48 461 73 739 86 934 5 81 14 198 20
260 29 319 38 757 20 953 -56 619 -349 1084 -765 1212 -55 17 -95 22 -195 22
-199 0 -215 -13 -235 -195 -6 -57 -14 -61 -87 -38 -92 30 -142 35 -198 22 -71
-17 -94 -43 -123 -141 -36 -122 -36 -123 -47 -301 -25 -445 -49 -713 -85 -988
-8 -58 -17 -134 -20 -170 -4 -36 -10 -92 -15 -125 -5 -33 -14 -107 -20 -165
-14 -132 -35 -178 -105 -230 -59 -43 -86 -77 -104 -130 -23 -65 -30 -185 -21
-326 29 -423 40 -666 35 -724 -10 -114 -16 -151 -30 -214 -8 -34 -17 -77 -20
-96 -22 -129 -178 -630 -192 -617 -4 4 13 111 42 267 7 41 16 140 19 220 3 80
14 219 25 310 43 368 91 927 91 1068 0 163 -45 261 -151 333 -30 20 -184 93
-344 164 -159 70 -377 168 -483 217 -290 133 -631 273 -857 351 -172 59 -179
62 -194 81 -23 27 -12 146 59 663 34 244 23 338 -45 391 -48 38 -71 42 -585
113 -80 11 -206 29 -280 39 -74 11 -202 29 -285 40 -82 12 -211 30 -285 40
-74 11 -198 28 -275 39 -324 46 -556 79 -835 121 -69 10 -190 28 -270 40 -80
12 -199 30 -265 40 -66 10 -185 28 -265 40 -80 12 -199 30 -265 40 -66 10
-183 28 -260 39 -77 11 -198 30 -270 40 -71 11 -195 29 -275 41 -80 11 -203
30 -275 40 -259 38 -742 108 -1385 200 -259 37 -616 86 -870 120 -85 11 -218
29 -295 40 -77 10 -207 28 -290 39 -82 11 -220 30 -305 41 -85 11 -218 29
-295 40 -77 10 -207 28 -290 39 -82 11 -220 30 -305 41 -159 21 -342 47 -580
80 -74 10 -202 28 -285 40 -82 11 -213 30 -290 41 -315 45 -426 61 -550 79
-71 11 -195 28 -275 40 -156 22 -349 50 -550 80 -69 10 -190 28 -270 40 -80
12 -201 30 -270 40 -69 10 -190 28 -270 40 -80 11 -206 29 -280 40 -128 19
-237 33 -590 80 -210 28 -382 34 -440 16z m1034 -476 c19 -19 -48 -67 -219
-155 -93 -48 -183 -96 -200 -105 -16 -10 -111 -59 -210 -110 -99 -52 -306
-160 -460 -242 -211 -111 -290 -148 -320 -150 -69 -3 -139 2 -167 14 -67 26
-35 48 296 214 171 86 370 187 441 224 433 224 610 312 648 320 50 11 177 4
191 -10z m1280 -173 l70 -23 -55 -31 c-69 -39 -522 -289 -614 -338 -38 -21
-189 -106 -334 -188 -296 -168 -352 -191 -466 -184 -69 4 -245 34 -254 42 -2
3 1 16 7 30 8 17 34 36 74 55 35 16 99 49 143 73 44 24 130 70 190 102 277
146 541 289 660 357 140 79 226 118 290 130 71 13 215 0 289 -25z m950 -121
c94 -15 283 -43 516 -76 74 -11 199 -28 278 -40 257 -37 415 -59 567 -80 83
-11 209 -29 280 -40 162 -24 377 -55 560 -81 198 -28 400 -57 545 -79 69 -10
195 -28 280 -40 187 -26 388 -54 570 -80 74 -10 200 -28 280 -39 80 -11 211
-29 293 -41 145 -20 306 -42 582 -80 77 -10 205 -28 285 -39 170 -23 398 -55
595 -81 77 -11 210 -29 295 -40 85 -12 218 -30 295 -40 77 -11 210 -29 295
-40 85 -12 220 -30 300 -41 451 -61 702 -96 811 -115 48 -8 105 -14 128 -14
34 0 41 -3 41 -20 0 -13 -9 -22 -27 -26 -54 -12 -89 -23 -163 -52 -64 -25
-173 -67 -425 -164 -27 -10 -77 -29 -110 -42 -33 -13 -127 -49 -210 -81 -217
-84 -277 -106 -300 -113 -11 -3 -47 -20 -80 -38 -117 -64 -173 -77 -355 -82
-129 -3 -196 1 -310 17 -149 21 -333 45 -615 81 -88 11 -227 29 -310 40 -82
10 -224 28 -315 40 -91 11 -232 29 -315 40 -82 10 -226 28 -320 40 -93 12
-237 30 -320 40 -82 10 -226 28 -320 40 -93 12 -237 30 -320 40 -82 10 -226
28 -320 40 -239 30 -443 55 -635 80 -91 11 -232 29 -315 40 -204 26 -449 57
-632 81 -176 22 -391 50 -613 78 -85 11 -227 30 -315 41 -88 11 -230 30 -315
41 -85 11 -220 28 -300 39 -181 24 -418 55 -620 81 -169 22 -371 58 -381 68
-23 21 31 59 322 226 173 98 431 247 574 329 347 202 379 212 569 182z m-5020
-595 c192 -31 509 -76 1126 -161 74 -11 201 -28 283 -39 81 -12 211 -29 290
-40 78 -11 210 -29 292 -41 191 -26 402 -55 580 -80 145 -20 334 -46 578 -79
275 -39 438 -61 582 -81 80 -11 210 -29 290 -40 727 -100 1123 -154 1475 -199
85 -11 229 -29 320 -41 91 -12 234 -30 317 -41 546 -70 904 -117 1203 -159 74
-10 205 -28 290 -40 85 -12 220 -30 300 -41 80 -11 206 -28 280 -39 206 -28
431 -59 580 -80 74 -11 200 -28 280 -39 80 -11 211 -29 293 -41 375 -52 512
-70 877 -120 85 -11 218 -29 295 -40 77 -10 212 -28 300 -40 88 -12 223 -30
300 -40 155 -21 371 -50 600 -80 204 -27 420 -55 600 -79 83 -11 174 -23 203
-26 101 -11 127 -39 117 -128 -8 -66 -59 -409 -106 -707 -25 -161 -53 -341
-79 -505 -11 -71 -29 -186 -40 -255 -11 -69 -29 -183 -40 -255 -11 -71 -29
-186 -40 -255 -11 -69 -29 -183 -40 -255 -42 -267 -60 -383 -79 -505 -11 -69
-30 -186 -41 -260 -12 -74 -30 -189 -40 -255 -11 -66 -29 -177 -40 -247 -11
-71 -29 -185 -40 -255 -11 -71 -30 -186 -41 -258 -11 -71 -29 -182 -39 -245
-47 -292 -61 -374 -80 -492 -11 -71 -29 -185 -40 -255 -47 -293 -120 -756
-160 -1018 -12 -77 -30 -194 -40 -260 -10 -66 -28 -185 -40 -265 -12 -80 -30
-199 -40 -265 -10 -66 -28 -185 -40 -265 -12 -80 -30 -199 -40 -265 -10 -66
-28 -183 -40 -260 -11 -77 -29 -196 -40 -265 -11 -69 -29 -186 -40 -260 -20
-128 -36 -227 -80 -510 -35 -220 -58 -371 -80 -515 -12 -77 -30 -194 -40 -260
-25 -159 -55 -365 -80 -555 -11 -85 -29 -209 -40 -275 -27 -170 -29 -171 -254
-136 -66 11 -186 29 -266 40 -80 12 -206 31 -280 42 -74 11 -195 29 -267 39
-73 11 -194 29 -268 40 -74 11 -196 29 -270 40 -458 68 -838 125 -1060 160
-66 10 -183 28 -260 40 -77 12 -192 30 -255 40 -63 10 -176 28 -250 40 -144
23 -301 48 -495 80 -66 11 -174 29 -240 39 -197 33 -557 93 -720 121 -60 10
-166 28 -235 40 -192 32 -345 59 -460 80 -58 11 -159 29 -225 40 -66 11 -167
29 -225 40 -58 11 -159 29 -225 40 -66 12 -167 30 -225 40 -58 11 -154 28
-215 39 -60 10 -164 29 -230 41 -118 21 -238 42 -465 81 -63 11 -162 28 -220
39 -58 11 -157 28 -220 39 -63 11 -169 29 -235 41 -66 12 -169 30 -230 40 -60
10 -162 28 -225 39 -63 11 -171 30 -240 41 -230 40 -349 60 -462 79 -62 11
-168 29 -235 40 -68 12 -176 30 -240 41 -192 32 -512 84 -743 121 -69 11 -177
29 -240 39 -119 19 -280 45 -505 80 -146 23 -334 53 -505 80 -218 35 -505 78
-810 120 -198 28 -336 57 -355 76 -8 9 -15 31 -15 51 0 43 47 340 140 888 60
353 79 472 120 725 33 207 85 534 120 760 11 74 29 192 40 263 11 70 29 184
40 255 11 70 29 186 40 257 42 274 63 410 120 775 11 69 29 184 40 255 43 272
62 394 80 510 11 66 29 179 40 250 53 340 62 398 80 505 28 172 58 361 80 493
11 64 28 170 39 235 58 352 108 667 161 1012 12 74 30 189 40 255 10 66 28
185 40 265 12 80 30 199 40 265 10 66 28 185 40 265 12 80 30 201 40 270 37
251 84 579 120 835 11 83 29 211 40 285 11 74 24 169 30 210 20 151 38 232 56
251 22 24 62 24 218 0z m18287 -402 c150 -38 262 -103 370 -215 78 -81 126
-154 180 -272 43 -92 115 -296 124 -349 3 -18 13 -63 22 -100 24 -98 24 -494
0 -648 -9 -60 -21 -153 -26 -205 -5 -52 -16 -149 -25 -215 -8 -66 -24 -201
-36 -300 -12 -99 -28 -225 -35 -280 -8 -55 -17 -125 -20 -155 -5 -52 -27 -199
-60 -410 -9 -52 -18 -113 -21 -135 -3 -22 -11 -71 -19 -110 -18 -87 -23 -115
-31 -187 -4 -32 -9 -58 -13 -58 -9 0 -135 141 -148 165 -6 11 -18 85 -27 165
-9 80 -23 170 -30 200 -8 30 -17 73 -21 95 -4 21 -29 105 -56 186 -27 80 -49
155 -49 165 0 11 14 73 30 139 42 167 67 295 90 470 53 390 53 1206 0 1458
-36 178 -124 321 -270 441 -77 63 -95 93 -85 143 5 29 10 33 39 33 18 0 70
-10 117 -21z m-426 -200 c219 -110 347 -263 389 -465 42 -199 45 -926 6 -1278
-11 -100 -20 -246 -20 -330 l0 -151 -42 50 c-22 28 -87 95 -142 151 -112 111
-204 171 -303 199 -35 10 -68 24 -75 32 -13 16 -5 128 26 378 36 287 49 491
53 870 4 267 2 418 -6 478 -7 48 -9 92 -6 97 11 18 38 11 120 -31z m-3564 -78
c68 -14 54 -87 -21 -109 -81 -23 -870 -341 -1050 -422 -208 -94 -306 -120
-453 -120 -83 0 -214 18 -259 35 -21 8 -23 28 -5 43 6 5 55 26 107 46 52 20
131 51 175 68 44 16 109 41 145 55 36 13 81 31 100 38 19 8 67 26 105 40 39
15 86 33 105 40 19 8 64 25 100 39 103 38 265 100 395 151 66 26 165 62 220
81 96 33 104 34 202 28 56 -3 116 -9 134 -13z m509 -306 c19 -23 4 -158 -22
-191 -19 -24 -97 -65 -188 -99 -19 -7 -102 -41 -185 -75 -207 -85 -405 -167
-675 -277 -161 -66 -199 -82 -395 -163 -194 -80 -262 -103 -280 -97 -24 10
-29 73 -10 142 19 70 47 103 110 130 68 29 338 138 895 362 294 119 562 227
595 240 114 47 136 51 155 28z m312 -1072 c51 -39 78 -75 170 -220 200 -319
392 -777 533 -1273 107 -379 201 -941 240 -1440 19 -240 19 -265 1 -293 -8
-12 -24 -50 -35 -84 -19 -57 -21 -86 -21 -341 0 -231 -3 -282 -14 -291 -28
-23 -669 -403 -871 -516 -222 -124 -500 -267 -664 -339 -57 -25 -105 -46 -107
-46 -3 0 1 32 26 200 10 69 28 189 39 268 12 78 30 204 41 280 30 204 91 627
120 832 11 77 29 202 40 278 25 176 53 378 80 567 11 83 30 211 40 285 11 74
29 203 40 285 12 83 30 211 40 285 10 74 28 205 40 290 11 85 30 218 40 295
11 77 29 210 40 295 11 85 29 216 40 290 10 74 22 162 25 195 9 87 33 195 46
211 17 20 31 17 71 -13z m-17774 -357 c202 -36 384 -124 580 -278 96 -77 97
-75 -130 -224 -346 -227 -454 -290 -648 -374 -193 -83 -317 -185 -355 -291
-22 -61 -23 -106 -11 -329 20 -362 -60 -760 -207 -1020 -123 -219 -232 -330
-535 -544 -123 -86 -238 -174 -257 -195 -44 -49 -106 -75 -240 -101 -294 -57
-541 -130 -775 -228 -206 -87 -438 -219 -623 -354 -50 -38 -99 -68 -109 -68
-10 0 -114 58 -230 128 -642 387 -1120 622 -1667 823 -681 251 -1279 388
-1885 435 -75 6 -93 10 -113 30 -25 25 -23 40 9 86 57 83 312 211 538 271 157
42 257 52 515 52 492 0 864 -58 1335 -209 249 -80 314 -99 335 -95 41 8 37
125 -6 196 -79 127 -556 299 -1034 372 -646 99 -1152 52 -1513 -140 -41 -21
-82 -39 -93 -39 -23 0 -95 63 -115 101 -46 90 23 287 144 408 147 147 344 226
682 273 129 18 213 21 771 25 429 3 649 1 695 -6 119 -19 224 -39 374 -71 304
-66 372 -63 378 14 4 46 -11 64 -82 104 -133 75 -334 135 -491 147 -44 3 -163
14 -265 25 -455 47 -610 60 -835 69 -132 5 -296 6 -365 2 -69 -4 -127 -5 -129
-4 -9 7 125 135 184 178 382 275 815 362 1550 311 238 -17 372 -35 642 -87
229 -44 285 -47 445 -20 252 42 358 54 496 54 78 0 145 -3 149 -7 4 -4 -39
-50 -95 -102 -229 -214 -420 -491 -537 -779 -45 -110 -119 -335 -135 -407 -6
-29 -18 -63 -28 -74 -9 -12 -60 -40 -112 -63 -140 -61 -242 -130 -351 -240
-171 -172 -244 -347 -174 -416 42 -43 61 -33 173 86 222 235 489 348 822 349
315 0 652 -91 1124 -304 195 -88 235 -95 286 -48 73 64 44 167 -79 285 -100
96 -212 164 -373 227 -280 109 -519 165 -753 175 -165 7 -185 11 -185 30 0 22
47 180 77 260 191 510 672 937 1228 1089 55 15 127 36 160 46 102 30 206 58
305 80 197 45 267 70 435 152 274 135 485 209 675 237 41 6 86 13 100 15 45 8
243 -3 328 -18z m17218 -192 c10 -37 -5 -143 -26 -191 -21 -47 -61 -77 -165
-121 -420 -180 -839 -372 -1378 -631 l-168 -80 -10 27 c-6 15 -13 59 -16 97
-8 97 15 175 61 210 18 14 36 25 39 25 29 0 513 206 1162 494 242 108 452 196
467 196 21 0 29 -6 34 -26z m3143 -99 c91 -48 224 -176 295 -285 116 -176 213
-440 242 -659 l7 -53 -23 12 c-63 34 -341 51 -453 29 -67 -14 -85 -30 -70 -62
9 -18 27 -26 104 -41 209 -42 356 -122 514 -281 166 -165 267 -351 328 -600
15 -62 20 -129 24 -305 5 -218 1 -273 -33 -500 -28 -180 -124 -470 -221 -664
-85 -172 -258 -468 -282 -484 -21 -14 -40 -14 -176 -3 -282 23 -500 109 -693
273 -86 73 -126 126 -178 234 -92 191 -144 345 -184 544 -11 58 -23 112 -25
120 -3 9 18 52 46 95 118 187 225 444 310 750 10 39 28 102 39 140 48 168 104
422 125 565 33 217 37 281 37 525 1 186 -4 288 -18 400 -24 192 -24 228 1 255
30 34 54 40 135 37 65 -3 86 -9 149 -42z m-1277 -2635 c29 0 94 -66 116 -118
11 -26 23 -81 27 -122 21 -243 81 -424 198 -603 210 -318 544 -536 944 -617
143 -28 399 -28 548 0 58 12 135 22 171 23 61 2 67 0 90 -26 35 -41 32 -85
-12 -144 -137 -182 -346 -306 -644 -379 -191 -48 -493 -26 -693 50 -371 141
-654 455 -817 905 -57 158 -107 397 -130 616 -10 96 -10 136 0 195 25 154 88
239 165 224 11 -2 28 -4 37 -4z m-19751 -434 c113 -21 209 -91 209 -152 0 -25
-8 -40 -40 -66 -127 -109 -322 -226 -450 -268 -412 -137 -721 -285 -1035 -493
-262 -174 -450 -344 -503 -454 -36 -78 -69 -98 -169 -106 -302 -25 -557 130
-605 367 -20 102 14 165 147 274 221 179 563 382 810 480 140 56 375 132 407
132 8 0 125 35 259 79 426 137 599 184 754 206 118 17 138 17 216 1z m17380
-312 c-6 -38 -19 -143 -31 -234 -56 -434 -100 -723 -114 -736 -6 -6 -47 -19
-91 -30 -67 -16 -111 -19 -270 -17 -104 2 -242 8 -305 15 -168 19 -257 17
-310 -7 -206 -90 -434 -378 -535 -675 -65 -191 -90 -388 -79 -610 16 -316 131
-626 306 -824 22 -26 37 -51 32 -55 -5 -4 -79 -38 -164 -76 -85 -37 -189 -84
-230 -103 -204 -95 -334 -152 -346 -152 -31 0 -37 40 -21 134 9 50 25 156 37
236 12 80 30 199 40 265 10 66 28 185 40 265 12 80 30 201 40 270 11 69 28
184 39 255 11 72 29 191 40 265 12 74 30 196 41 270 47 312 63 410 81 495 10
50 21 111 25 136 l6 46 186 99 c102 54 236 125 297 157 60 32 151 80 200 106
50 27 284 151 520 276 237 126 461 245 500 266 38 21 71 36 73 35 1 -2 -2 -34
-7 -72z m958 -3111 c-67 -113 -225 -347 -325 -480 -197 -262 -378 -445 -592
-598 -142 -101 -192 -116 -238 -69 -29 28 -29 26 -1 174 16 85 35 206 79 498
l23 153 40 10 c106 29 187 51 255 71 102 29 391 124 468 154 159 62 191 74
242 98 73 33 75 32 49 -11z m-1543 -1059 c9 -48 -3 -111 -27 -151 -27 -44 -75
-71 -266 -149 -87 -36 -194 -81 -238 -99 -309 -128 -385 -159 -425 -175 -107
-42 -500 -207 -666 -280 -99 -44 -183 -80 -187 -80 -12 0 -8 145 5 181 22 65
85 120 176 153 43 16 336 135 432 175 36 15 99 42 140 59 41 17 122 51 180 75
58 25 193 82 300 127 107 45 236 99 285 120 85 35 201 82 235 92 26 9 49 -11
56 -48z m-14901 -305 c282 -51 336 -62 420 -79 50 -11 133 -24 185 -30 52 -6
127 -19 165 -29 39 -11 94 -22 123 -26 28 -4 52 -9 52 -12 0 -25 -181 -194
-260 -242 -44 -27 -111 -27 -169 -1 -24 11 -62 23 -85 26 -74 9 -264 46 -541
103 -80 17 -164 34 -369 75 l-59 12 132 109 c73 61 140 113 149 117 23 11 126
1 257 -23z m1367 -238 c51 -11 147 -29 213 -41 129 -23 170 -38 170 -60 0 -7
-57 -67 -128 -132 l-128 -118 -52 0 c-33 0 -66 7 -90 20 -23 13 -56 20 -89 20
-51 0 -275 46 -291 60 -4 4 7 29 26 56 37 55 229 214 258 214 10 0 60 -9 111
-19z m-1827 -121 c257 -59 644 -131 779 -144 32 -4 71 -13 85 -20 14 -7 39
-17 55 -22 16 -5 31 -15 34 -22 5 -17 -176 -192 -236 -228 -57 -34 -133 -41
-192 -19 -52 20 -192 55 -338 84 -56 11 -147 30 -202 41 -55 11 -144 29 -197
40 -261 52 -317 67 -327 83 -8 12 -8 22 0 35 24 39 227 180 278 193 43 11 165
1 261 -21z m2600 -10 c251 -32 455 -80 455 -107 0 -10 -138 -184 -186 -235
-41 -43 -88 -55 -154 -38 -83 21 -164 38 -290 60 -148 26 -220 47 -220 64 0
36 180 237 235 262 17 7 39 12 50 9 11 -2 61 -9 110 -15z m940 -151 c172 -23
373 -65 392 -81 7 -6 13 -16 13 -22 0 -15 -75 -119 -162 -223 -76 -91 -80 -93
-175 -73 -49 10 -169 32 -378 70 -178 32 -168 29 -160 48 20 54 81 136 160
213 104 104 85 100 310 68z m-2115 -119 c63 -12 131 -28 150 -35 19 -8 62 -17
94 -20 57 -7 106 -22 106 -34 0 -32 -212 -276 -249 -287 -15 -4 -48 1 -88 14
-35 12 -110 29 -166 37 -117 18 -307 63 -322 76 -5 6 10 29 40 60 54 55 230
202 255 212 18 8 34 6 180 -23z m2930 -15 c121 -13 339 -48 408 -66 40 -11 97
-19 127 -19 56 0 125 -21 125 -38 0 -20 -77 -123 -168 -226 -68 -76 -101 -106
-123 -111 -41 -9 -137 3 -174 23 -16 8 -70 19 -120 23 -112 10 -374 64 -453
94 -21 8 21 79 121 202 93 115 120 135 172 128 17 -2 55 -7 85 -10z m-5051
-69 c53 -14 134 -33 316 -76 44 -11 119 -28 167 -40 149 -35 259 -61 348 -82
47 -11 119 -28 161 -39 41 -10 87 -19 101 -19 14 0 31 -7 39 -16 11 -14 -7
-35 -137 -160 -102 -98 -162 -149 -191 -160 -50 -20 -97 -16 -258 19 -66 14
-167 35 -225 46 -114 22 -257 50 -415 81 -55 11 -145 28 -200 39 -320 62 -305
57 -288 93 11 25 374 276 446 308 51 24 65 24 136 6z m2893 -72 c93 -20 165
-32 256 -44 39 -5 85 -16 102 -25 16 -8 42 -15 57 -15 34 0 76 -27 69 -45 -13
-34 -218 -273 -243 -284 -23 -9 -37 -9 -73 4 -25 9 -82 20 -126 25 -45 5 -136
22 -203 39 -66 17 -130 31 -141 31 -17 0 -93 32 -108 45 -16 14 196 243 253
273 28 16 72 15 157 -4z m3318 -29 c30 -9 84 -20 120 -26 36 -6 103 -19 150
-30 47 -10 116 -19 153 -19 56 0 68 -3 77 -20 14 -25 20 -16 -122 -192 -148
-184 -140 -181 -329 -145 -74 14 -192 34 -264 46 -71 11 -165 25 -207 32 -107
16 -112 40 -29 135 20 22 54 65 77 95 92 123 223 166 374 124z m-2355 -157
c50 -10 138 -25 196 -32 112 -15 195 -43 206 -72 11 -28 -43 -116 -139 -229
-99 -116 -101 -117 -192 -90 -28 8 -94 24 -146 35 -123 28 -244 56 -347 82
-114 29 -113 33 30 191 140 154 171 163 392 115z m3536 -28 c84 -17 168 -30
188 -30 51 0 111 -19 118 -36 7 -19 -16 -52 -163 -232 -73 -89 -126 -145 -141
-148 -38 -10 -125 1 -162 19 -19 9 -55 17 -81 17 -42 0 -272 44 -371 70 -55
15 -66 33 -46 75 20 43 140 198 191 247 21 21 53 42 70 48 50 15 232 1 397
-30z m-5847 -74 c83 -24 336 -83 496 -116 58 -12 143 -30 190 -40 47 -10 135
-28 195 -39 61 -12 156 -30 213 -41 56 -11 150 -29 210 -41 229 -44 482 -95
595 -120 247 -54 339 -74 560 -119 53 -11 141 -29 195 -40 255 -53 303 -63
382 -86 47 -13 102 -24 124 -24 49 0 117 -20 123 -37 11 -28 -95 -181 -197
-285 -76 -78 -97 -84 -169 -43 -30 18 -58 25 -94 25 -28 0 -105 13 -171 29
-67 16 -168 39 -226 51 -58 12 -143 30 -190 40 -47 10 -132 28 -190 40 -58 12
-145 30 -195 40 -49 11 -135 29 -190 40 -55 11 -143 30 -195 41 -52 11 -135
28 -185 38 -49 11 -134 29 -188 40 -53 11 -141 30 -195 41 -182 38 -297 62
-382 80 -47 10 -132 28 -190 40 -58 12 -143 30 -190 40 -47 10 -132 28 -190
40 -58 12 -143 30 -190 40 -47 11 -103 22 -125 25 -50 7 -95 25 -95 36 0 15
262 275 300 298 41 25 93 27 164 7z m6571 -36 c71 -10 198 -29 280 -41 154
-22 332 -62 348 -78 11 -11 -21 -59 -142 -216 -133 -173 -141 -183 -172 -195
-34 -14 -131 -1 -182 25 -18 9 -77 21 -132 26 -107 10 -258 39 -367 70 -36 10
-74 19 -83 19 -21 0 -16 15 28 88 35 59 222 302 240 314 18 11 38 10 182 -12z
m-3395 -35 c30 -8 132 -28 226 -44 94 -17 186 -36 205 -45 19 -8 52 -20 74
-28 23 -8 41 -21 43 -31 2 -12 -26 -51 -75 -105 -44 -48 -95 -107 -114 -131
-38 -48 -93 -81 -137 -81 -17 0 -52 6 -78 14 -27 8 -96 24 -154 35 -122 25
-281 58 -359 75 -59 13 -77 30 -68 67 8 31 189 259 225 282 31 21 117 18 212
-8z m4430 -125 c179 -25 351 -57 409 -76 25 -8 70 -15 100 -15 92 -2 116 -10
119 -40 2 -19 -9 -42 -40 -80 -24 -30 -90 -114 -147 -187 -57 -73 -116 -139
-132 -147 -38 -20 -105 -18 -154 4 -22 10 -76 21 -120 24 -146 13 -507 85
-529 107 -14 14 41 114 119 215 161 209 164 213 210 214 11 1 85 -8 165 -19z
m-9835 -80 c44 -11 161 -38 260 -60 99 -22 216 -49 260 -60 44 -10 122 -28
173 -39 155 -35 268 -60 360 -81 48 -10 132 -29 187 -40 55 -12 138 -30 185
-40 47 -10 132 -28 190 -40 58 -12 143 -30 190 -41 47 -10 130 -28 185 -39 55
-12 141 -30 190 -40 50 -11 135 -29 190 -40 55 -12 138 -30 185 -40 47 -10
132 -28 190 -40 58 -12 143 -30 190 -40 85 -18 200 -42 382 -80 54 -11 141
-29 193 -40 52 -11 138 -29 190 -40 52 -11 137 -29 187 -40 51 -11 137 -29
190 -40 156 -33 384 -80 578 -120 58 -12 143 -30 190 -40 83 -18 185 -39 382
-80 54 -11 140 -29 190 -40 51 -11 138 -28 193 -40 135 -27 282 -58 385 -80
47 -10 131 -28 188 -39 56 -12 148 -30 205 -42 56 -11 140 -29 187 -39 87 -19
204 -43 390 -81 58 -11 143 -29 190 -39 47 -10 135 -28 195 -40 61 -12 148
-30 195 -40 47 -10 132 -28 190 -40 58 -11 146 -29 195 -39 50 -11 137 -29
195 -40 58 -12 146 -30 195 -40 50 -11 137 -29 195 -40 158 -33 273 -57 390
-81 58 -12 148 -30 200 -41 100 -20 224 -46 375 -78 50 -10 140 -29 200 -41
61 -12 148 -30 195 -40 47 -10 132 -28 190 -40 58 -12 143 -30 190 -40 47 -10
130 -28 185 -40 55 -11 138 -29 185 -39 47 -11 130 -29 185 -40 94 -21 142
-31 363 -81 150 -33 444 -100 527 -120 44 -10 118 -28 165 -39 525 -123 601
-144 623 -173 19 -26 19 -29 3 -120 -10 -51 -27 -142 -37 -203 -11 -60 -28
-157 -39 -215 -11 -58 -22 -124 -25 -147 -4 -23 -16 -54 -27 -68 -16 -21 -28
-25 -73 -25 -29 0 -91 8 -137 19 -46 10 -132 28 -193 40 -60 13 -148 31 -195
41 -47 10 -132 28 -190 40 -156 32 -351 73 -580 121 -104 23 -235 50 -375 80
-49 10 -135 28 -190 40 -55 11 -143 30 -195 40 -52 11 -133 29 -180 39 -47 10
-132 28 -190 40 -58 12 -143 30 -190 40 -47 10 -132 28 -190 40 -58 12 -143
30 -190 40 -47 10 -132 28 -190 40 -58 12 -143 30 -190 40 -111 23 -250 53
-380 80 -58 12 -143 30 -190 40 -47 10 -128 28 -180 39 -238 49 -454 95 -570
120 -47 11 -132 29 -190 41 -135 28 -251 53 -370 78 -52 12 -140 30 -195 42
-55 11 -138 29 -185 39 -84 19 -179 39 -380 81 -58 12 -143 30 -190 40 -47 10
-129 28 -183 39 -156 33 -275 58 -382 80 -55 12 -143 31 -195 41 -170 36 -293
62 -380 80 -47 10 -131 28 -187 39 -57 12 -149 30 -205 42 -57 11 -141 29
-188 39 -47 10 -132 28 -190 40 -58 11 -145 29 -195 39 -49 11 -136 28 -192
40 -57 12 -149 30 -205 42 -57 12 -143 29 -193 40 -49 10 -137 28 -195 39 -58
12 -145 30 -195 40 -49 10 -139 28 -200 40 -60 12 -129 26 -152 31 -52 11
-489 100 -523 106 -14 2 -68 13 -120 24 -52 10 -187 37 -300 59 -113 22 -248
49 -300 59 -52 11 -144 29 -205 41 -60 12 -153 30 -205 41 -52 10 -142 28
-200 39 -58 11 -148 29 -200 39 -52 11 -144 29 -205 41 -60 12 -153 30 -205
41 -199 40 -255 49 -324 55 -39 4 -83 13 -98 20 -50 26 -52 38 -33 268 42 537
51 624 65 641 17 21 79 16 205 -15z m6404 -1 c30 -11 65 -19 79 -19 26 0 155
-28 283 -61 41 -10 93 -19 115 -19 22 0 49 -6 59 -14 17 -12 18 -17 7 -40 -18
-41 -179 -252 -209 -276 -33 -25 -47 -25 -243 13 -123 23 -260 47 -445 78 -78
13 -115 31 -115 57 0 19 102 164 154 220 43 46 82 74 120 83 42 10 129 0 195
-22z m4423 -83 c40 -8 120 -24 178 -35 58 -11 152 -29 210 -40 58 -11 143 -25
190 -31 110 -15 160 -28 166 -45 11 -27 -19 -67 -236 -317 -40 -46 -81 -91
-92 -100 -29 -26 -139 -24 -197 2 -24 11 -62 20 -85 20 -84 0 -408 58 -531 95
-70 20 -63 37 101 250 80 105 155 195 167 202 29 16 42 16 129 -1z m-3323
-110 c84 -15 166 -33 182 -42 16 -8 34 -12 39 -9 19 11 182 -18 188 -33 16
-44 -204 -333 -266 -349 -15 -3 -52 1 -87 11 -33 10 -100 22 -149 27 -49 5
-114 15 -145 23 -31 8 -99 22 -151 32 -107 20 -120 27 -120 59 0 27 186 271
228 298 32 22 62 20 281 -17z m4474 -90 c40 -8 128 -24 197 -36 69 -12 172
-30 230 -40 58 -10 128 -21 155 -25 72 -9 155 -49 155 -74 0 -26 -344 -399
-376 -407 -27 -7 -68 -2 -169 20 -70 15 -187 35 -445 76 -236 38 -237 39 -243
62 -9 32 25 82 138 208 23 25 64 77 92 115 83 113 124 129 266 101z m-3523
-70 c102 -14 226 -35 276 -47 50 -11 119 -24 153 -29 34 -5 74 -16 87 -25 l25
-16 -26 -32 c-15 -18 -71 -90 -125 -162 -103 -137 -136 -165 -194 -165 -45 0
-134 19 -166 35 -14 7 -79 20 -145 30 -121 17 -290 53 -377 81 l-48 16 17 31
c32 63 115 170 206 266 49 50 53 53 92 48 22 -3 123 -17 225 -31z m-2567 -125
c45 -11 132 -29 192 -41 61 -12 142 -31 181 -41 38 -11 100 -19 136 -19 53 0
76 -6 119 -28 30 -15 55 -35 57 -43 3 -18 -211 -304 -245 -326 -24 -16 -31
-16 -112 4 -47 12 -134 31 -193 42 -60 12 -154 30 -210 41 -57 11 -148 29
-203 40 -56 11 -110 20 -122 20 -36 0 -36 17 -2 67 41 59 257 283 284 294 28
11 27 11 118 -10z m7267 -21 c83 -10 257 -41 365 -65 39 -8 89 -15 113 -15 24
0 76 -11 115 -24 40 -13 102 -27 139 -30 155 -13 151 -34 -52 -257 -88 -97
-173 -182 -189 -188 -23 -10 -44 -9 -102 3 -41 8 -130 22 -199 31 -124 16
-253 37 -465 76 -194 35 -220 40 -237 45 -23 7 -23 41 0 75 34 52 305 351 326
360 12 5 41 6 66 3 25 -2 79 -9 120 -14z m-3710 -21 c58 -12 148 -30 200 -41
52 -11 141 -22 198 -25 81 -5 108 -10 128 -25 40 -32 31 -59 -64 -180 -49 -62
-103 -134 -120 -159 -54 -79 -119 -96 -241 -60 -36 11 -122 29 -191 41 -384
66 -410 73 -410 119 0 41 203 319 250 344 40 21 83 18 250 -14z m983 -164
c156 -24 315 -55 387 -75 36 -11 99 -21 142 -24 84 -5 118 -18 118 -44 0 -28
-280 -370 -321 -392 -27 -15 -76 -12 -148 9 -36 11 -124 29 -196 41 -71 12
-173 30 -225 40 -52 10 -115 21 -140 25 -52 7 -90 29 -90 51 0 20 17 44 157
226 62 80 119 149 126 151 23 10 88 7 190 -8z m-3474 -6 c123 -20 266 -50 310
-64 24 -8 74 -17 110 -21 127 -11 152 -36 105 -107 -73 -112 -216 -287 -239
-293 -33 -8 -76 -2 -235 33 -125 29 -243 53 -397 83 -35 7 -63 17 -63 22 0 32
83 158 166 251 108 121 103 119 243 96z m7601 -499 c-22 -533 -27 -603 -44
-645 -23 -53 -55 -85 -226 -225 -80 -65 -174 -142 -210 -171 -273 -223 -691
-573 -1009 -846 -133 -115 -159 -133 -189 -133 -30 0 -34 2 -29 23 3 12 9 47
12 77 6 52 25 189 62 435 9 61 21 122 27 137 6 14 137 163 292 330 154 166
341 368 415 448 454 492 603 654 745 813 l159 179 3 -79 c2 -43 -2 -197 -8
-343z m-6589 311 c70 -21 144 -36 228 -46 30 -3 79 -15 110 -25 31 -10 90 -21
131 -25 96 -8 108 -12 115 -36 7 -22 -21 -67 -152 -240 -95 -127 -111 -139
-183 -139 -32 0 -77 7 -101 15 -47 17 -171 45 -304 69 -44 8 -129 24 -188 35
-113 21 -157 40 -157 68 0 16 69 112 162 224 25 31 68 70 94 87 41 28 56 32
115 32 37 0 95 -8 130 -19z m3561 0 c51 -10 147 -29 213 -41 66 -12 163 -30
215 -41 53 -10 116 -19 140 -19 55 0 94 -19 98 -45 2 -13 -29 -56 -89 -125
-51 -58 -115 -132 -142 -165 -73 -90 -111 -115 -169 -115 -29 0 -65 8 -88 20
-25 13 -59 20 -95 20 -55 0 -177 21 -360 61 -49 10 -98 19 -107 19 -48 0 -119
23 -129 42 -13 24 -9 30 134 203 167 200 172 205 234 205 29 0 94 -9 145 -19z
m-2452 -202 c69 -11 181 -34 250 -49 69 -16 148 -32 177 -35 54 -7 80 -25 67
-47 -20 -35 -246 -348 -269 -372 -31 -33 -43 -33 -240 7 -71 15 -177 36 -235
48 -93 18 -218 48 -290 68 -49 15 -38 47 67 186 54 71 119 152 145 179 l47 49
78 -6 c43 -4 134 -16 203 -28z m3603 2 c45 -11 141 -29 212 -41 156 -26 296
-56 348 -76 20 -8 71 -14 113 -14 66 0 78 -3 99 -25 14 -13 25 -34 25 -45 0
-13 -35 -57 -88 -113 -48 -51 -113 -124 -144 -163 -84 -106 -151 -133 -243
-98 -38 15 -151 37 -420 84 -185 32 -334 58 -404 69 -35 6 -66 12 -69 15 -19
20 267 360 343 407 40 25 122 25 228 0z m-2720 -165 c29 -8 113 -24 187 -36
74 -13 173 -33 220 -46 46 -13 104 -24 127 -24 24 0 59 -6 78 -14 33 -14 34
-16 24 -44 -12 -35 -286 -382 -320 -406 -31 -21 -57 -20 -97 4 -20 13 -50 20
-80 20 -27 0 -82 9 -123 19 -41 10 -130 29 -199 41 -69 12 -160 34 -202 47
-75 24 -78 26 -72 51 12 50 55 118 124 194 37 42 82 97 100 123 57 83 119 102
233 71z m1049 -201 c46 -9 133 -25 193 -36 61 -12 157 -30 215 -40 185 -35
202 -39 231 -60 16 -11 29 -28 29 -38 0 -9 -30 -50 -66 -90 -36 -40 -98 -114
-138 -165 -78 -96 -107 -126 -143 -145 -30 -15 -105 -14 -150 4 -21 8 -76 21
-123 29 -47 8 -133 24 -192 35 -60 12 -155 30 -213 40 -154 29 -151 27 -147
84 1 10 62 86 136 170 216 246 208 241 368 212z m1078 -215 c309 -57 488 -93
520 -106 8 -3 56 -9 107 -14 84 -7 210 -45 237 -71 12 -11 -5 -35 -121 -171
-54 -63 -117 -138 -140 -165 -72 -86 -115 -96 -263 -60 -36 8 -126 25 -200 37
-140 22 -291 50 -420 76 -41 9 -98 19 -126 24 -28 5 -70 14 -93 20 l-41 11 46
60 c64 83 314 348 344 364 32 18 26 18 150 -5z m-3040 -1520 c80 -17 172 -35
205 -41 33 -6 87 -16 120 -24 33 -8 100 -22 148 -31 l89 -17 -7 -36 c-9 -54
-53 -139 -76 -146 -28 -9 -70 2 -157 41 -185 83 -401 206 -447 254 -16 17 -27
30 -24 30 2 0 69 -14 149 -30z m4786 -22 c55 -27 119 -94 145 -151 30 -67 26
-182 -12 -325 -47 -175 -55 -201 -79 -272 -133 -393 -366 -798 -600 -1044 -79
-83 -245 -213 -320 -251 -58 -29 -163 -55 -223 -55 -95 0 -303 58 -356 99 -35
27 -20 54 64 111 190 128 361 345 540 684 130 245 254 597 280 791 11 84 36
174 61 219 52 93 188 195 288 216 63 14 162 4 212 -22z m-3591 -352 c382 -257
672 -540 880 -861 121 -186 192 -331 273 -555 44 -121 45 -128 45 -245 1 -128
-6 -152 -72 -259 -14 -22 -42 -80 -62 -130 -45 -109 -83 -157 -152 -194 -50
-26 -58 -27 -239 -30 -159 -3 -205 0 -305 18 -283 52 -516 148 -748 309 -227
156 -418 413 -418 561 0 30 12 72 35 125 20 44 59 136 88 205 29 69 74 175
100 235 26 61 98 229 160 375 62 146 135 317 161 380 47 108 80 160 103 160 5
0 73 -42 151 -94z m4320 -166 c66 -10 185 -28 265 -40 184 -27 354 -55 498
-82 l114 -21 -3 -560 c-4 -585 -3 -590 37 -556 31 26 55 92 64 177 6 48 19
134 29 192 40 213 53 319 60 488 6 160 8 174 29 195 19 18 33 22 90 22 84 -1
154 -20 183 -51 33 -35 35 -105 10 -301 -39 -300 -60 -476 -66 -553 -13 -176
-47 -218 -266 -331 -235 -121 -294 -185 -264 -285 21 -71 70 -123 248 -263
120 -94 145 -171 107 -326 -12 -50 -33 -137 -47 -195 -13 -58 -31 -127 -39
-155 -8 -27 -36 -129 -63 -225 -65 -230 -207 -658 -260 -780 -5 -14 -32 -81
-59 -150 -162 -411 -382 -843 -600 -1175 -342 -524 -686 -866 -1013 -1008
-125 -55 -172 -64 -220 -44 -48 20 -179 135 -173 151 3 7 17 19 32 26 47 21
214 134 297 201 224 181 462 463 730 869 285 431 507 852 690 1310 102 257
207 594 274 880 37 159 43 195 48 296 7 123 1 154 -30 154 -29 0 -51 -40 -92
-165 -197 -602 -471 -1193 -833 -1795 -256 -426 -636 -897 -925 -1146 -188
-163 -443 -344 -482 -344 -38 0 -76 40 -182 192 -156 223 -257 400 -347 606
-231 527 -287 1122 -155 1637 60 234 173 499 285 665 151 226 316 388 559 550
355 237 568 466 787 850 185 325 290 592 368 940 12 52 29 115 37 138 l16 44
71 -7 c39 -4 125 -15 191 -25z m-1641 -35 c13 -50 -124 -368 -238 -555 -84
-137 -183 -265 -268 -346 -128 -121 -198 -158 -277 -146 -32 4 -33 6 -28 41 3
20 88 205 190 411 203 413 222 441 307 455 63 11 115 37 210 104 47 34 88 61
91 61 4 0 10 -11 13 -25z m-6898 -1140 c758 -67 1434 -369 1958 -874 151 -146
250 -270 375 -470 132 -210 240 -332 406 -458 44 -33 87 -68 95 -78 8 -10 60
-55 115 -100 409 -336 841 -547 1315 -641 116 -23 139 -31 165 -55 l30 -29 3
-151 c2 -100 -1 -161 -8 -179 -19 -46 -44 -54 -381 -115 -48 -9 -137 -20 -198
-25 -61 -6 -162 -14 -223 -20 -62 -5 -143 -10 -179 -10 -79 0 -105 -15 -95
-53 12 -50 43 -59 219 -70 223 -12 654 -2 732 17 83 21 121 20 145 -4 17 -17
20 -33 20 -125 0 -204 -30 -226 -356 -265 -94 -11 -261 -25 -370 -30 -109 -6
-213 -13 -230 -16 -17 -3 -104 2 -195 11 -276 27 -265 19 -261 169 2 55 7 119
12 141 24 102 1 194 -61 249 -46 42 -72 50 -142 44 -40 -3 -67 -14 -108 -41
-51 -34 -81 -58 -273 -214 -71 -58 -81 -63 -125 -63 -42 0 -63 10 -187 86
-169 104 -370 247 -609 434 -99 78 -214 168 -255 200 -41 32 -123 96 -181 142
-632 497 -941 718 -1412 1012 -242 151 -512 272 -752 337 -83 22 -272 59 -440
85 -163 26 -517 26 -695 2 -69 -10 -204 -28 -300 -40 -134 -16 -185 -27 -219
-45 -24 -13 -59 -23 -78 -23 -19 0 -48 -9 -64 -21 -36 -25 -71 -19 -47 9 9 9
18 30 22 46 4 17 17 40 29 52 52 52 128 136 200 220 109 128 177 171 330 206
80 18 135 21 417 25 308 5 335 4 512 -21 184 -25 216 -31 428 -83 195 -48 452
-142 665 -244 444 -212 863 -510 1380 -979 367 -334 518 -459 735 -611 225
-157 354 -232 506 -292 104 -41 237 -77 286 -77 41 0 67 32 46 58 -7 8 -98 72
-203 140 -104 69 -234 154 -288 189 -251 165 -422 306 -792 654 -313 293 -571
514 -935 799 -375 294 -712 467 -1240 637 -224 72 -299 94 -410 121 -195 48
-262 61 -392 78 -117 16 -138 21 -138 36 0 24 31 43 157 95 281 116 598 199
873 228 161 17 475 17 666 0z m3051 -218 c7 -7 33 -62 58 -121 84 -204 172
-334 327 -482 197 -187 434 -317 773 -422 228 -70 281 -77 618 -77 l299 0 23
-27 c47 -54 45 -312 -2 -463 -65 -206 -176 -355 -312 -422 -54 -27 -62 -28
-201 -27 -167 0 -234 16 -465 109 -628 252 -1108 615 -1498 1131 -148 196
-175 296 -122 463 54 170 203 321 347 351 54 11 138 5 155 -13z"/>
<path d="M15468 30074 c-43 -23 -54 -75 -178 -849 -12 -71 -29 -182 -40 -245
-10 -63 -28 -171 -39 -240 -11 -69 -30 -183 -41 -255 -19 -121 -32 -199 -80
-495 -10 -63 -28 -176 -40 -250 -12 -74 -30 -187 -40 -250 -10 -63 -28 -173
-39 -245 -11 -71 -30 -188 -41 -260 -12 -71 -30 -186 -41 -255 -10 -69 -28
-179 -39 -245 -10 -66 -28 -181 -40 -255 -12 -74 -30 -187 -40 -250 -10 -63
-28 -178 -40 -255 -12 -77 -30 -192 -40 -255 -11 -63 -28 -176 -40 -250 -11
-74 -30 -191 -41 -260 -19 -122 -37 -238 -79 -505 -11 -71 -29 -186 -40 -255
-11 -69 -29 -183 -40 -255 -26 -164 -54 -344 -79 -505 -11 -69 -29 -188 -41
-265 -12 -77 -30 -192 -40 -255 -10 -63 -28 -178 -40 -255 -12 -77 -30 -194
-40 -260 -10 -66 -28 -181 -40 -255 -11 -74 -29 -191 -40 -260 -11 -69 -29
-186 -40 -260 -12 -74 -30 -189 -40 -255 -10 -66 -28 -183 -40 -260 -12 -77
-30 -194 -40 -260 -60 -381 -60 -413 -9 -444 48 -29 210 -64 614 -130 125 -21
298 -49 495 -82 63 -10 169 -27 235 -38 66 -11 179 -29 250 -41 72 -12 180
-30 240 -40 61 -10 167 -28 238 -39 254 -42 510 -84 735 -121 67 -11 177 -29
245 -40 67 -11 176 -30 242 -41 66 -11 174 -28 240 -39 204 -34 365 -61 480
-80 61 -10 169 -28 240 -40 72 -12 180 -30 240 -40 61 -10 169 -28 240 -40 72
-12 182 -30 245 -40 63 -11 169 -28 235 -39 66 -11 176 -30 245 -41 69 -11
177 -29 240 -40 63 -10 174 -28 245 -40 72 -12 180 -30 240 -40 61 -10 167
-28 238 -39 70 -12 184 -30 255 -42 70 -11 177 -29 237 -39 61 -10 171 -28
245 -40 74 -12 185 -30 245 -40 61 -10 167 -28 238 -39 312 -51 457 -75 737
-121 305 -50 507 -83 738 -121 70 -11 177 -29 237 -39 61 -10 169 -28 240 -40
159 -26 388 -66 698 -120 64 -11 169 -29 232 -40 63 -11 168 -29 233 -41 64
-11 164 -29 222 -39 58 -11 159 -29 225 -40 66 -12 167 -30 225 -40 58 -11
159 -29 225 -40 125 -22 249 -44 447 -81 164 -30 202 -20 226 61 12 44 45 209
72 363 38 224 61 353 80 457 10 58 28 161 40 230 11 69 29 175 40 235 19 114
45 277 79 500 11 72 29 191 40 265 27 175 54 359 81 540 11 80 29 204 40 275
10 72 28 198 40 280 11 83 30 211 40 285 11 74 29 205 40 290 12 85 28 193 37
240 28 156 53 344 53 406 0 34 7 79 16 100 10 22 20 88 25 154 4 63 14 131 22
150 9 19 18 58 22 85 3 28 15 102 25 165 10 63 28 178 40 255 12 77 30 192 40
255 10 63 28 178 40 255 12 77 30 194 40 260 10 66 28 183 40 260 12 77 30
194 40 260 23 148 55 359 81 528 10 70 28 184 38 255 11 70 29 188 40 262 23
148 48 317 81 540 12 80 30 201 40 270 10 69 28 193 40 275 11 83 29 200 40
260 11 61 26 151 35 200 8 50 18 142 21 205 4 80 16 158 39 255 61 252 68 292
53 323 -16 33 -99 63 -223 81 -44 7 -134 21 -200 31 -375 59 -732 111 -1095
160 -85 12 -218 30 -295 40 -77 11 -209 29 -292 40 -376 50 -714 95 -898 120
-201 27 -575 77 -890 119 -360 49 -464 63 -607 82 -84 11 -216 28 -293 39 -77
10 -212 28 -300 40 -88 11 -223 29 -300 40 -77 10 -209 28 -293 39 -443 60
-912 124 -1174 161 -289 41 -418 60 -553 79 -134 20 -260 37 -580 81 -80 11
-210 29 -290 40 -80 11 -209 29 -287 40 -79 11 -213 29 -298 40 -85 12 -218
30 -295 40 -77 11 -210 29 -295 40 -85 11 -218 29 -295 40 -77 10 -212 28
-300 40 -88 12 -225 30 -305 40 -424 57 -538 72 -905 120 -156 20 -311 41
-605 80 -80 11 -211 29 -292 40 -172 24 -165 23 -200 4z m421 -158 c82 -14
179 -28 511 -76 80 -11 204 -29 275 -40 132 -19 308 -45 560 -81 485 -69 615
-87 1165 -159 85 -11 223 -29 305 -40 437 -57 718 -95 910 -121 244 -33 420
-57 585 -79 85 -11 218 -29 295 -40 359 -49 451 -61 600 -80 243 -32 682 -89
913 -120 500 -66 721 -97 1157 -160 72 -10 193 -28 270 -39 77 -11 203 -30
280 -41 77 -11 201 -29 275 -40 74 -10 203 -28 285 -40 83 -11 211 -29 285
-40 127 -18 240 -34 575 -80 77 -10 205 -28 285 -39 80 -11 215 -29 300 -41
85 -11 218 -29 295 -40 77 -10 212 -28 300 -40 88 -11 225 -29 305 -40 80 -10
224 -29 320 -40 96 -12 242 -30 323 -41 81 -10 186 -19 233 -19 69 0 86 -3 91
-16 10 -27 -11 -48 -68 -66 -62 -19 -354 -162 -479 -235 -161 -93 -177 -97
-335 -98 -105 0 -170 6 -260 23 -173 33 -320 58 -485 82 -80 12 -201 30 -270
40 -69 10 -190 28 -270 40 -80 12 -201 30 -270 40 -69 10 -192 28 -275 40 -82
11 -211 30 -285 40 -74 11 -205 29 -290 40 -85 12 -218 30 -295 40 -77 11
-209 29 -292 40 -84 11 -220 29 -303 40 -82 11 -217 29 -300 40 -183 24 -529
70 -910 120 -269 36 -440 58 -610 80 -91 12 -230 30 -310 40 -80 11 -219 29
-310 40 -91 12 -230 30 -310 40 -80 10 -216 28 -303 39 -267 35 -466 61 -617
81 -80 11 -217 29 -305 40 -196 26 -549 76 -850 120 -71 11 -192 28 -268 40
-75 11 -197 28 -270 39 -151 23 -358 53 -562 82 -77 11 -196 28 -265 39 -276
42 -617 81 -820 95 -47 4 -97 11 -112 17 -30 11 -504 499 -521 535 -7 16 -6
27 3 38 15 18 12 18 119 1z m671 -881 c30 -8 75 -15 99 -15 24 0 105 -9 180
-20 75 -12 199 -30 276 -41 77 -11 199 -29 270 -39 279 -41 651 -94 845 -120
85 -11 218 -29 295 -40 77 -10 212 -28 300 -40 378 -50 905 -123 1170 -161
144 -20 314 -45 560 -80 77 -11 199 -28 270 -39 72 -10 194 -28 273 -39 78
-12 206 -30 285 -42 78 -11 201 -29 272 -40 72 -10 193 -29 270 -40 77 -11
194 -29 260 -39 66 -10 185 -28 265 -40 80 -12 201 -30 270 -40 221 -33 392
-59 535 -79 77 -11 205 -30 285 -41 230 -33 404 -58 560 -79 80 -11 211 -29
293 -41 81 -11 213 -29 295 -40 81 -11 210 -29 287 -40 77 -10 210 -29 295
-40 85 -11 218 -29 295 -40 77 -11 223 -29 325 -40 224 -25 510 -59 566 -66
44 -5 68 -24 77 -62 8 -34 -34 -349 -83 -614 -11 -60 -29 -156 -39 -215 -11
-60 -29 -157 -40 -218 -11 -60 -29 -164 -41 -230 -12 -66 -30 -165 -40 -220
-10 -55 -28 -154 -40 -220 -12 -66 -30 -165 -40 -220 -10 -55 -28 -154 -40
-220 -12 -66 -30 -167 -41 -225 -10 -58 -28 -157 -39 -220 -25 -139 -52 -287
-79 -435 -11 -60 -29 -164 -41 -230 -11 -66 -29 -167 -40 -225 -11 -58 -28
-157 -39 -220 -11 -63 -29 -169 -41 -235 -23 -132 -49 -278 -80 -457 -22 -132
-49 -287 -79 -458 -11 -63 -29 -171 -41 -240 -11 -69 -29 -174 -40 -235 -10
-60 -28 -164 -39 -230 -45 -267 -68 -407 -120 -710 -11 -66 -29 -176 -41 -245
-11 -69 -29 -174 -40 -235 -10 -60 -28 -168 -40 -240 -12 -71 -30 -179 -40
-240 -10 -60 -28 -171 -40 -245 -12 -74 -30 -182 -40 -240 -10 -58 -21 -127
-25 -155 -4 -27 -13 -62 -21 -77 -13 -24 -20 -28 -60 -28 -25 0 -98 9 -163 21
-193 34 -329 57 -461 79 -69 12 -174 30 -235 40 -60 11 -166 29 -235 40 -69
12 -174 30 -235 40 -60 11 -166 29 -235 40 -69 12 -174 29 -235 40 -60 10
-168 28 -240 40 -71 12 -179 30 -240 40 -134 23 -433 73 -715 120 -63 10 -169
28 -235 39 -221 36 -554 90 -750 121 -66 11 -176 29 -245 40 -69 11 -182 29
-252 40 -71 11 -185 29 -255 40 -124 20 -233 37 -508 80 -71 11 -186 29 -255
40 -69 11 -183 29 -255 40 -71 11 -186 29 -255 40 -130 20 -299 46 -520 80
-71 11 -187 29 -257 39 -71 11 -191 29 -268 41 -77 12 -194 30 -260 40 -66 10
-181 28 -255 40 -74 11 -191 29 -260 40 -69 11 -183 29 -255 40 -71 11 -186
29 -255 40 -69 11 -183 29 -255 40 -71 11 -186 29 -255 40 -69 11 -183 29
-255 40 -735 115 -753 118 -760 130 -2 4 0 36 5 71 6 35 19 120 30 189 11 69
29 184 40 255 11 72 29 186 40 255 11 69 29 184 40 255 11 72 29 186 40 255
11 69 29 184 40 255 11 72 29 186 40 255 11 69 29 184 40 255 11 72 29 186 40
255 11 69 29 184 40 255 11 72 29 186 40 255 35 220 58 371 80 515 12 77 30
196 41 265 11 69 28 182 39 253 11 70 29 184 40 255 11 70 29 188 40 262 12
74 30 189 40 255 10 66 28 183 40 260 12 77 30 194 40 260 162 1043 292 2003
351 2585 6 63 14 118 16 123 7 12 95 8 153 -8z m11099 -987 c13 -22 12 -33 -7
-94 -11 -38 -30 -139 -42 -224 -11 -85 -29 -207 -40 -270 -11 -63 -29 -173
-40 -245 -12 -71 -30 -182 -40 -245 -11 -63 -29 -172 -40 -242 -11 -71 -29
-183 -40 -250 -10 -68 -29 -184 -40 -258 -12 -74 -30 -187 -40 -250 -10 -63
-28 -178 -40 -255 -12 -77 -30 -192 -40 -255 -10 -63 -28 -178 -40 -255 -12
-77 -30 -192 -40 -255 -10 -63 -28 -178 -40 -255 -12 -77 -30 -194 -40 -260
-10 -66 -28 -183 -40 -260 -11 -77 -29 -196 -40 -265 -36 -239 -49 -335 -55
-417 -4 -45 -15 -107 -26 -137 -13 -38 -19 -82 -19 -137 0 -50 -7 -107 -19
-147 -22 -77 -51 -242 -81 -457 -20 -145 -40 -269 -80 -500 -10 -60 -28 -168
-40 -240 -11 -71 -29 -182 -40 -245 -22 -136 -52 -320 -80 -498 -56 -347 -68
-423 -160 -992 -41 -251 -95 -611 -120 -795 -41 -305 -50 -382 -59 -476 -10
-110 -31 -169 -59 -169 -23 0 -69 39 -352 300 -124 114 -248 227 -276 251 -61
52 -101 110 -110 157 -4 19 1 72 10 121 9 47 26 131 36 186 26 135 57 298 81
425 11 58 28 150 39 205 10 55 28 154 40 220 12 66 30 167 40 225 18 98 29
158 80 458 11 61 29 163 40 225 10 61 28 166 40 232 12 66 30 170 40 230 10
61 28 164 40 230 12 66 30 172 41 235 11 63 29 165 39 225 11 61 29 166 40
235 12 69 30 175 40 235 40 234 91 534 120 705 21 123 38 228 79 465 20 120
44 263 82 490 11 66 28 170 39 230 10 61 28 169 40 240 12 72 30 180 40 240
11 61 29 166 40 235 12 69 30 178 41 242 11 65 29 173 40 240 11 68 29 173 39
233 10 61 28 165 39 233 92 545 102 601 122 692 45 205 79 333 96 363 14 26
47 47 168 106 281 140 560 271 570 268 6 -2 16 -15 24 -29z m-12580 -7152
c131 -42 259 -68 466 -96 186 -25 364 -52 520 -80 176 -31 359 -60 740 -120
211 -33 382 -60 505 -80 63 -10 176 -28 250 -40 127 -20 182 -29 490 -80 374
-62 758 -124 980 -160 63 -10 172 -28 243 -39 177 -29 360 -59 507 -82 69 -11
177 -29 240 -39 63 -10 174 -28 245 -39 72 -11 189 -30 260 -41 218 -35 363
-58 510 -80 77 -12 194 -30 260 -40 66 -10 185 -28 265 -40 80 -12 199 -30
265 -40 66 -10 185 -28 265 -40 80 -12 199 -30 265 -40 66 -10 183 -28 260
-39 227 -34 401 -60 545 -82 287 -43 390 -59 530 -79 80 -12 199 -30 265 -40
66 -10 183 -28 260 -39 205 -30 393 -59 540 -81 72 -11 195 -29 275 -41 88
-13 165 -30 195 -44 31 -14 109 -75 200 -156 83 -74 244 -216 358 -317 114
-101 214 -197 223 -214 l15 -30 -58 7 c-104 11 -553 76 -733 105 -63 10 -176
28 -250 40 -74 12 -187 30 -250 40 -63 10 -176 28 -250 40 -74 12 -187 30
-250 40 -63 10 -176 28 -250 40 -171 27 -331 53 -490 79 -69 11 -183 30 -255
41 -71 11 -182 29 -245 40 -230 37 -368 60 -495 80 -71 12 -182 29 -245 40
-63 10 -173 28 -245 40 -71 12 -179 30 -240 40 -60 10 -168 28 -240 40 -71 12
-183 30 -247 41 -380 63 -526 87 -718 119 -69 11 -178 29 -243 40 -149 25
-317 53 -482 80 -71 12 -184 30 -250 41 -259 43 -355 58 -480 79 -220 35 -354
57 -490 80 -71 12 -184 30 -250 41 -66 10 -174 28 -240 39 -66 11 -174 29
-240 39 -66 11 -178 29 -250 41 -183 30 -339 56 -490 80 -71 12 -179 30 -240
40 -60 10 -168 28 -240 40 -71 11 -182 29 -245 40 -63 10 -173 28 -245 40 -71
12 -179 30 -240 40 -60 10 -168 28 -240 40 -71 12 -182 30 -245 40 -63 10
-173 28 -245 40 -71 12 -179 30 -240 40 -60 10 -166 28 -235 39 -69 12 -177
30 -240 40 -166 28 -212 34 -240 32 -14 -1 -33 4 -43 12 -18 12 -17 15 17 45
20 18 47 32 59 32 12 0 157 79 322 176 260 153 348 202 364 204 2 0 51 -15
110 -34z"/>
<path d="M18885 27331 c-280 -37 -597 -216 -778 -441 -172 -214 -276 -441
-334 -735 -23 -118 -26 -152 -26 -380 0 -210 4 -272 22 -385 23 -143 49 -274
81 -405 32 -138 32 -129 2 -148 -49 -28 -178 -172 -219 -243 -42 -72 -79 -161
-71 -169 2 -2 51 28 109 67 311 213 654 308 1109 308 130 0 408 -17 418 -25 2
-2 -6 -21 -17 -43 -11 -22 -30 -77 -43 -123 -56 -213 0 -464 138 -614 38 -41
44 -46 39 -25 -29 125 -36 178 -36 260 0 309 161 541 444 641 112 39 259 41
370 5 231 -76 420 -260 458 -448 16 -83 20 -87 35 -39 37 124 21 250 -49 386
-61 119 -190 244 -318 311 l-96 49 27 135 c56 283 65 382 65 705 0 271 -2 310
-22 405 -92 434 -301 708 -656 860 -172 73 -250 90 -432 95 -88 2 -187 0 -220
-4z m418 -297 c285 -85 474 -261 572 -532 56 -155 67 -231 72 -488 5 -256 -6
-379 -59 -659 -36 -190 -34 -185 -71 -185 -58 0 -200 -41 -283 -83 -45 -22
-116 -68 -158 -103 l-76 -64 0 62 c0 35 -7 128 -15 208 -8 80 -19 253 -24 385
-6 132 -13 250 -16 262 -5 16 -21 26 -59 36 -80 22 -240 55 -371 77 -66 10
-165 27 -219 36 l-100 16 135 50 c207 76 350 130 419 157 l45 18 -3 74 c-6
179 -56 374 -125 492 -36 62 -132 154 -190 183 -27 14 -47 27 -44 30 10 10
146 46 207 54 105 14 268 2 363 -26z"/>
<path d="M22285 26705 c-125 -33 -327 -125 -407 -186 -154 -115 -352 -358
-448 -549 -105 -208 -203 -642 -235 -1035 -15 -189 -37 -440 -39 -440 -29 -8
-226 -160 -226 -175 0 -4 30 3 66 16 210 77 506 112 779 94 681 -45 1337 -312
1729 -703 37 -38 70 -66 72 -64 3 3 -12 45 -34 94 -39 91 -111 208 -167 273
-61 70 -59 64 -30 122 102 202 202 495 253 743 36 173 43 235 49 430 5 162 2
210 -16 326 -11 74 -27 155 -36 178 -8 24 -15 49 -15 57 0 21 -87 219 -122
276 -168 277 -418 468 -713 544 -129 34 -331 33 -460 -1z m391 -265 c359 -91
625 -417 685 -840 26 -176 9 -488 -35 -661 -7 -30 -17 -71 -20 -92 -19 -105
-186 -557 -206 -557 -4 0 -37 20 -74 44 -142 96 -325 183 -508 242 -43 14 -76
29 -73 33 2 4 8 32 13 62 5 30 26 135 46 234 50 250 74 374 79 413 4 32 1 34
-82 80 -95 53 -153 81 -408 198 -95 43 -171 79 -170 80 1 1 54 7 117 13 369
33 477 45 496 52 16 5 24 22 32 66 50 256 43 439 -22 586 -14 32 -26 60 -26
62 0 12 83 3 156 -15z"/>
<path d="M18699 23239 c140 -316 404 -661 652 -855 72 -56 76 -61 62 -80 -8
-10 -33 -55 -56 -98 -79 -151 -181 -223 -334 -233 -97 -7 -104 -18 -59 -85
222 -336 647 -591 1139 -684 128 -24 164 -27 362 -27 188 0 235 4 325 23 289
60 522 170 703 330 170 150 323 433 377 693 l11 57 43 -57 c94 -127 243 -232
356 -249 l45 -6 -90 93 c-101 105 -173 205 -234 324 -62 122 -91 217 -110 365
l-18 135 -31 -63 c-44 -91 -59 -185 -44 -281 9 -66 32 -145 56 -202 8 -20 -14
-29 -134 -54 -516 -111 -1027 -111 -1494 0 -486 115 -858 339 -1346 810 -85
83 -165 159 -178 169 l-22 19 19 -44z"/>
</g>
</svg>
